<svg xmlns="http://www.w3.org/2000/svg" viewBox="0 0 5120 320" class="sprite"><g><use href="#i-0" x="320"/></g><g><use href="#i-0" x="640"/><use href="#i-1" x="640"/></g><g><use href="#i-0" x="960"/><use href="#i-1" x="960"/><use href="#i-2" x="960"/></g><g><use href="#i-0" x="1280"/><use href="#i-1" x="1280"/><use href="#i-2" x="1280"/><use href="#i-3" x="1280"/></g><g><use href="#i-0" x="1600"/><use href="#i-1" x="1600"/><use href="#i-2" x="1600"/><use href="#i-3" x="1600"/><use href="#i-4" x="1600"/></g><g><use href="#i-0" x="1920"/><use href="#i-1" x="1920"/><use href="#i-2" x="1920"/><use href="#i-3" x="1920"/><use href="#i-4" x="1920"/><use href="#i-5" x="1920"/></g><g><use href="#i-0" x="2240"/><use href="#i-1" x="2240"/><use href="#i-2" x="2240"/><use href="#i-3" x="2240"/><use href="#i-4" x="2240"/><use href="#i-5" x="2240"/><use href="#i-6" x="2240"/></g><g><use href="#i-0" x="2560"/><use href="#i-1" x="2560"/><use href="#i-2" x="2560"/><use href="#i-3" x="2560"/><use href="#i-4" x="2560"/><use href="#i-5" x="2560"/><use href="#i-6" x="2560"/><use href="#i-7" x="2560"/></g><g><use href="#i-0" x="2880"/><use href="#i-1" x="2880"/><use href="#i-2" x="2880"/><use href="#i-3" x="2880"/><use href="#i-4" x="2880"/><use href="#i-5" x="2880"/><use href="#i-6" x="2880"/><use href="#i-7" x="2880"/><use href="#i-8" x="2880"/></g><g><use href="#i-0" x="3200"/><use href="#i-1" x="3200"/><use href="#i-2" x="3200"/><use href="#i-3" x="3200"/><use href="#i-4" x="3200"/><use href="#i-5" x="3200"/><use href="#i-6" x="3200"/><use href="#i-7" x="3200"/><use href="#i-8" x="3200"/><use href="#i-9" x="3200"/></g><g><use href="#i-0" x="3520"/><use href="#i-1" x="3520"/><use href="#i-2" x="3520"/><use href="#i-3" x="3520"/><use href="#i-4" x="3520"/><use href="#i-5" x="3520"/><use href="#i-6" x="3520"/><use href="#i-7" x="3520"/><use href="#i-8" x="3520"/><use href="#i-9" x="3520"/><use href="#i-10" x="3520"/></g><g><use href="#i-0" x="3840"/><use href="#i-1" x="3840"/><use href="#i-2" x="3840"/><use href="#i-3" x="3840"/><use href="#i-4" x="3840"/><use href="#i-5" x="3840"/><use href="#i-6" x="3840"/><use href="#i-7" x="3840"/><use href="#i-8" x="3840"/><use href="#i-9" x="3840"/><use href="#i-10" x="3840"/><use href="#i-11" x="3840"/></g><g><use href="#i-0" x="4160"/><use href="#i-1" x="4160"/><use href="#i-2" x="4160"/><use href="#i-3" x="4160"/><use href="#i-4" x="4160"/><use href="#i-5" x="4160"/><use href="#i-6" x="4160"/><use href="#i-7" x="4160"/><use href="#i-8" x="4160"/><use href="#i-9" x="4160"/><use href="#i-10" x="4160"/><use href="#i-11" x="4160"/><use href="#i-12" x="4160"/></g><g><use href="#i-0" x="4480"/><use href="#i-1" x="4480"/><use href="#i-2" x="4480"/><use href="#i-3" x="4480"/><use href="#i-4" x="4480"/><use href="#i-5" x="4480"/><use href="#i-6" x="4480"/><use href="#i-7" x="4480"/><use href="#i-8" x="4480"/><use href="#i-9" x="4480"/><use href="#i-10" x="4480"/><use href="#i-11" x="4480"/><use href="#i-12" x="4480"/><use href="#i-13" x="4480"/></g><g><use href="#i-0" x="4800"/><use href="#i-1" x="4800"/><use href="#i-2" x="4800"/><use href="#i-3" x="4800"/><use href="#i-4" x="4800"/><use href="#i-5" x="4800"/><use href="#i-6" x="4800"/><use href="#i-7" x="4800"/><use href="#i-8" x="4800"/><use href="#i-9" x="4800"/><use href="#i-10" x="4800"/><use href="#i-11" x="4800"/><use href="#i-12" x="4800"/><use href="#i-13" x="4800"/><use href="#i-14" x="4800"/></g><defs><path d="M240 300 h10 v10 h-10 z M190 160 h10 v10 h-10 z M40 130 h10 v10 h-10 z M210 100 h10 v10 h-10 z M160 180 h10 v10 h-10 z M30 70 h10 v10 h-10 z M160 210 h10 v10 h-10 z M300 260 h10 v10 h-10 z M20 110 h10 v10 h-10 z M110 280 h10 v10 h-10 z M290 50 h10 v10 h-10 z M210 260 h10 v10 h-10 z M180 250 h10 v10 h-10 z M230 160 h10 v10 h-10 z M170 270 h10 v10 h-10 z M140 80 h10 v10 h-10 z M120 250 h10 v10 h-10 z M280 240 h10 v10 h-10 z M210 270 h10 v10 h-10 z M40 270 h10 v10 h-10 z M130 310 h10 v10 h-10 z M220 60 h10 v10 h-10 z M120 160 h10 v10 h-10 z M290 30 h10 v10 h-10 z M60 140 h10 v10 h-10 z M40 50 h10 v10 h-10 z M70 130 h10 v10 h-10 z M220 220 h10 v10 h-10 z M100 290 h10 v10 h-10 z M240 250 h10 v10 h-10 z M70 210 h10 v10 h-10 z M140 130 h10 v10 h-10 z M230 260 h10 v10 h-10 z M10 240 h10 v10 h-10 z M140 100 h10 v10 h-10 z M130 240 h10 v10 h-10 z M20 270 h10 v10 h-10 z M130 160 h10 v10 h-10 z M20 120 h10 v10 h-10 z M10 100 h10 v10 h-10 z M90 270 h10 v10 h-10 z M200 240 h10 v10 h-10 z M150 0 h10 v10 h-10 z M230 100 h10 v10 h-10 z M90 0 h10 v10 h-10 z M160 250 h10 v10 h-10 z M310 230 h10 v10 h-10 z M170 180 h10 v10 h-10 z M280 180 h10 v10 h-10 z M50 0 h10 v10 h-10 z M170 130 h10 v10 h-10 z M150 30 h10 v10 h-10 z M240 170 h10 v10 h-10 z M80 310 h10 v10 h-10 z M160 0 h10 v10 h-10 z M290 70 h10 v10 h-10 z M250 100 h10 v10 h-10 z M210 300 h10 v10 h-10 z M80 60 h10 v10 h-10 z M250 40 h10 v10 h-10 z M180 170 h10 v10 h-10 z M290 270 h10 v10 h-10 z M150 80 h10 v10 h-10 z M0 30 h10 v10 h-10 z M110 40 h10 v10 h-10 z M210 90 h10 v10 h-10 z M160 200 h10 v10 h-10 z M190 170 h10 v10 h-10 z M270 60 h10 v10 h-10 z " fill="currentColor" stroke="currentColor" shape-rendering="crispEdges" stroke-width="0.025" id="i-0"/><path d="M40 80 h10 v10 h-10 z M110 220 h10 v10 h-10 z M200 60 h10 v10 h-10 z M210 110 h10 v10 h-10 z M230 30 h10 v10 h-10 z M260 300 h10 v10 h-10 z M0 210 h10 v10 h-10 z M170 210 h10 v10 h-10 z M20 240 h10 v10 h-10 z M300 210 h10 v10 h-10 z M200 180 h10 v10 h-10 z M70 20 h10 v10 h-10 z M290 90 h10 v10 h-10 z M60 70 h10 v10 h-10 z M130 0 h10 v10 h-10 z M280 190 h10 v10 h-10 z M200 250 h10 v10 h-10 z M60 130 h10 v10 h-10 z M50 190 h10 v10 h-10 z M290 130 h10 v10 h-10 z M50 110 h10 v10 h-10 z M150 210 h10 v10 h-10 z M310 90 h10 v10 h-10 z M140 180 h10 v10 h-10 z M250 170 h10 v10 h-10 z M80 30 h10 v10 h-10 z M310 170 h10 v10 h-10 z M130 140 h10 v10 h-10 z M310 250 h10 v10 h-10 z M280 220 h10 v10 h-10 z M210 310 h10 v10 h-10 z M20 30 h10 v10 h-10 z M200 100 h10 v10 h-10 z M220 80 h10 v10 h-10 z M160 220 h10 v10 h-10 z M180 190 h10 v10 h-10 z M0 40 h10 v10 h-10 z M300 20 h10 v10 h-10 z M200 280 h10 v10 h-10 z M220 50 h10 v10 h-10 z M240 230 h10 v10 h-10 z M190 120 h10 v10 h-10 z M160 130 h10 v10 h-10 z M220 270 h10 v10 h-10 z M160 110 h10 v10 h-10 z M120 230 h10 v10 h-10 z M200 310 h10 v10 h-10 z M300 150 h10 v10 h-10 z M40 120 h10 v10 h-10 z M270 230 h10 v10 h-10 z M110 310 h10 v10 h-10 z M70 260 h10 v10 h-10 z M150 290 h10 v10 h-10 z M30 80 h10 v10 h-10 z M30 120 h10 v10 h-10 z M0 100 h10 v10 h-10 z M110 140 h10 v10 h-10 z M120 60 h10 v10 h-10 z M190 200 h10 v10 h-10 z M10 200 h10 v10 h-10 z M280 30 h10 v10 h-10 z M240 20 h10 v10 h-10 z M50 50 h10 v10 h-10 z M310 300 h10 v10 h-10 z M190 90 h10 v10 h-10 z M280 310 h10 v10 h-10 z M140 250 h10 v10 h-10 z M100 0 h10 v10 h-10 z M160 300 h10 v10 h-10 z " fill="currentColor" stroke="currentColor" shape-rendering="crispEdges" stroke-width="0.025" id="i-1"/><path d="M290 190 h10 v10 h-10 z M300 90 h10 v10 h-10 z M110 30 h10 v10 h-10 z M170 110 h10 v10 h-10 z M190 10 h10 v10 h-10 z M250 50 h10 v10 h-10 z M260 310 h10 v10 h-10 z M250 220 h10 v10 h-10 z M280 0 h10 v10 h-10 z M30 50 h10 v10 h-10 z M150 150 h10 v10 h-10 z M20 210 h10 v10 h-10 z M80 190 h10 v10 h-10 z M70 190 h10 v10 h-10 z M260 260 h10 v10 h-10 z M70 290 h10 v10 h-10 z M50 210 h10 v10 h-10 z M260 20 h10 v10 h-10 z M110 130 h10 v10 h-10 z M200 130 h10 v10 h-10 z M260 220 h10 v10 h-10 z M250 260 h10 v10 h-10 z M240 310 h10 v10 h-10 z M280 70 h10 v10 h-10 z M90 10 h10 v10 h-10 z M170 100 h10 v10 h-10 z M120 0 h10 v10 h-10 z M270 70 h10 v10 h-10 z M90 120 h10 v10 h-10 z M50 220 h10 v10 h-10 z M150 120 h10 v10 h-10 z M280 260 h10 v10 h-10 z M110 90 h10 v10 h-10 z M160 150 h10 v10 h-10 z M120 220 h10 v10 h-10 z M230 120 h10 v10 h-10 z M0 80 h10 v10 h-10 z M30 220 h10 v10 h-10 z M90 180 h10 v10 h-10 z M240 110 h10 v10 h-10 z M30 40 h10 v10 h-10 z M110 150 h10 v10 h-10 z M200 90 h10 v10 h-10 z M270 250 h10 v10 h-10 z M20 220 h10 v10 h-10 z M0 160 h10 v10 h-10 z M220 280 h10 v10 h-10 z M90 220 h10 v10 h-10 z M170 120 h10 v10 h-10 z M210 40 h10 v10 h-10 z M120 260 h10 v10 h-10 z M270 120 h10 v10 h-10 z M10 60 h10 v10 h-10 z M140 160 h10 v10 h-10 z M80 90 h10 v10 h-10 z M10 70 h10 v10 h-10 z M210 290 h10 v10 h-10 z M250 60 h10 v10 h-10 z M210 140 h10 v10 h-10 z M120 10 h10 v10 h-10 z M220 310 h10 v10 h-10 z M150 100 h10 v10 h-10 z M120 180 h10 v10 h-10 z M280 170 h10 v10 h-10 z M200 150 h10 v10 h-10 z M30 180 h10 v10 h-10 z M70 180 h10 v10 h-10 z M10 160 h10 v10 h-10 z M220 130 h10 v10 h-10 z " fill="currentColor" stroke="currentColor" shape-rendering="crispEdges" stroke-width="0.025" id="i-2"/><path d="M270 110 h10 v10 h-10 z M20 200 h10 v10 h-10 z M150 310 h10 v10 h-10 z M220 70 h10 v10 h-10 z M170 60 h10 v10 h-10 z M90 40 h10 v10 h-10 z M230 280 h10 v10 h-10 z M50 40 h10 v10 h-10 z M90 90 h10 v10 h-10 z M70 220 h10 v10 h-10 z M20 170 h10 v10 h-10 z M260 180 h10 v10 h-10 z M260 190 h10 v10 h-10 z M280 110 h10 v10 h-10 z M100 50 h10 v10 h-10 z M290 80 h10 v10 h-10 z M160 60 h10 v10 h-10 z M0 280 h10 v10 h-10 z M180 270 h10 v10 h-10 z M300 0 h10 v10 h-10 z M50 100 h10 v10 h-10 z M40 260 h10 v10 h-10 z M30 250 h10 v10 h-10 z M230 80 h10 v10 h-10 z M20 100 h10 v10 h-10 z M0 190 h10 v10 h-10 z M260 160 h10 v10 h-10 z M210 50 h10 v10 h-10 z M230 170 h10 v10 h-10 z M200 110 h10 v10 h-10 z M0 130 h10 v10 h-10 z M230 50 h10 v10 h-10 z M180 310 h10 v10 h-10 z M90 110 h10 v10 h-10 z M190 300 h10 v10 h-10 z M210 210 h10 v10 h-10 z M290 260 h10 v10 h-10 z M190 230 h10 v10 h-10 z M150 270 h10 v10 h-10 z M170 40 h10 v10 h-10 z M80 170 h10 v10 h-10 z M50 260 h10 v10 h-10 z M100 70 h10 v10 h-10 z M290 160 h10 v10 h-10 z M310 180 h10 v10 h-10 z M270 40 h10 v10 h-10 z M110 230 h10 v10 h-10 z M40 10 h10 v10 h-10 z M140 60 h10 v10 h-10 z M120 310 h10 v10 h-10 z M250 240 h10 v10 h-10 z M290 200 h10 v10 h-10 z M300 250 h10 v10 h-10 z M260 250 h10 v10 h-10 z M180 100 h10 v10 h-10 z M40 280 h10 v10 h-10 z M240 220 h10 v10 h-10 z M70 60 h10 v10 h-10 z M240 280 h10 v10 h-10 z M20 160 h10 v10 h-10 z M180 90 h10 v10 h-10 z M90 200 h10 v10 h-10 z M20 70 h10 v10 h-10 z M290 290 h10 v10 h-10 z M60 60 h10 v10 h-10 z M290 300 h10 v10 h-10 z M130 50 h10 v10 h-10 z M0 150 h10 v10 h-10 z M270 220 h10 v10 h-10 z " fill="currentColor" stroke="currentColor" shape-rendering="crispEdges" stroke-width="0.025" id="i-3"/><path d="M190 240 h10 v10 h-10 z M230 300 h10 v10 h-10 z M170 250 h10 v10 h-10 z M190 270 h10 v10 h-10 z M170 190 h10 v10 h-10 z M50 90 h10 v10 h-10 z M290 310 h10 v10 h-10 z M210 70 h10 v10 h-10 z M170 280 h10 v10 h-10 z M50 240 h10 v10 h-10 z M90 300 h10 v10 h-10 z M120 20 h10 v10 h-10 z M130 20 h10 v10 h-10 z M280 280 h10 v10 h-10 z M300 180 h10 v10 h-10 z M190 20 h10 v10 h-10 z M80 220 h10 v10 h-10 z M100 210 h10 v10 h-10 z M40 220 h10 v10 h-10 z M90 190 h10 v10 h-10 z M310 160 h10 v10 h-10 z M230 130 h10 v10 h-10 z M230 250 h10 v10 h-10 z M70 70 h10 v10 h-10 z M220 230 h10 v10 h-10 z M20 20 h10 v10 h-10 z M290 40 h10 v10 h-10 z M180 30 h10 v10 h-10 z M290 240 h10 v10 h-10 z M250 250 h10 v10 h-10 z M160 70 h10 v10 h-10 z M0 70 h10 v10 h-10 z M60 290 h10 v10 h-10 z M110 170 h10 v10 h-10 z M250 120 h10 v10 h-10 z M160 100 h10 v10 h-10 z M260 150 h10 v10 h-10 z M210 180 h10 v10 h-10 z M70 270 h10 v10 h-10 z M60 190 h10 v10 h-10 z M310 150 h10 v10 h-10 z M100 10 h10 v10 h-10 z M30 310 h10 v10 h-10 z M20 130 h10 v10 h-10 z M50 170 h10 v10 h-10 z M160 160 h10 v10 h-10 z M140 140 h10 v10 h-10 z M190 140 h10 v10 h-10 z M120 70 h10 v10 h-10 z M90 240 h10 v10 h-10 z M120 210 h10 v10 h-10 z M20 180 h10 v10 h-10 z M30 280 h10 v10 h-10 z M40 20 h10 v10 h-10 z M210 170 h10 v10 h-10 z M70 110 h10 v10 h-10 z M80 140 h10 v10 h-10 z M240 140 h10 v10 h-10 z M220 0 h10 v10 h-10 z M70 40 h10 v10 h-10 z M60 270 h10 v10 h-10 z M150 60 h10 v10 h-10 z M50 150 h10 v10 h-10 z M110 50 h10 v10 h-10 z M10 190 h10 v10 h-10 z M260 0 h10 v10 h-10 z M60 10 h10 v10 h-10 z M170 140 h10 v10 h-10 z M290 250 h10 v10 h-10 z " fill="currentColor" stroke="currentColor" shape-rendering="crispEdges" stroke-width="0.025" id="i-4"/><path d="M300 310 h10 v10 h-10 z M0 50 h10 v10 h-10 z M170 160 h10 v10 h-10 z M60 120 h10 v10 h-10 z M20 0 h10 v10 h-10 z M10 10 h10 v10 h-10 z M0 310 h10 v10 h-10 z M250 180 h10 v10 h-10 z M250 80 h10 v10 h-10 z M140 90 h10 v10 h-10 z M50 200 h10 v10 h-10 z M140 200 h10 v10 h-10 z M110 70 h10 v10 h-10 z M250 160 h10 v10 h-10 z M220 260 h10 v10 h-10 z M290 230 h10 v10 h-10 z M310 30 h10 v10 h-10 z M120 170 h10 v10 h-10 z M280 130 h10 v10 h-10 z M100 180 h10 v10 h-10 z M270 270 h10 v10 h-10 z M110 160 h10 v10 h-10 z M70 280 h10 v10 h-10 z M130 250 h10 v10 h-10 z M310 0 h10 v10 h-10 z M40 200 h10 v10 h-10 z M240 60 h10 v10 h-10 z M210 150 h10 v10 h-10 z M280 10 h10 v10 h-10 z M200 290 h10 v10 h-10 z M110 210 h10 v10 h-10 z M240 150 h10 v10 h-10 z M10 0 h10 v10 h-10 z M50 250 h10 v10 h-10 z M80 70 h10 v10 h-10 z M260 240 h10 v10 h-10 z M70 240 h10 v10 h-10 z M220 250 h10 v10 h-10 z M210 80 h10 v10 h-10 z M310 60 h10 v10 h-10 z M240 210 h10 v10 h-10 z M50 30 h10 v10 h-10 z M40 190 h10 v10 h-10 z M200 50 h10 v10 h-10 z M50 310 h10 v10 h-10 z M140 210 h10 v10 h-10 z M100 250 h10 v10 h-10 z M20 50 h10 v10 h-10 z M130 70 h10 v10 h-10 z M220 100 h10 v10 h-10 z M100 20 h10 v10 h-10 z M230 10 h10 v10 h-10 z M260 40 h10 v10 h-10 z M90 50 h10 v10 h-10 z M280 50 h10 v10 h-10 z M10 260 h10 v10 h-10 z M260 110 h10 v10 h-10 z M170 220 h10 v10 h-10 z M60 170 h10 v10 h-10 z M230 90 h10 v10 h-10 z M80 150 h10 v10 h-10 z M70 230 h10 v10 h-10 z M100 270 h10 v10 h-10 z M280 270 h10 v10 h-10 z M240 30 h10 v10 h-10 z M30 210 h10 v10 h-10 z M150 220 h10 v10 h-10 z M130 170 h10 v10 h-10 z M300 220 h10 v10 h-10 z " fill="currentColor" stroke="currentColor" shape-rendering="crispEdges" stroke-width="0.025" id="i-5"/><path d="M310 260 h10 v10 h-10 z M130 260 h10 v10 h-10 z M300 130 h10 v10 h-10 z M280 100 h10 v10 h-10 z M110 240 h10 v10 h-10 z M220 180 h10 v10 h-10 z M140 240 h10 v10 h-10 z M280 90 h10 v10 h-10 z M140 260 h10 v10 h-10 z M60 250 h10 v10 h-10 z M0 10 h10 v10 h-10 z M190 260 h10 v10 h-10 z M150 50 h10 v10 h-10 z M200 260 h10 v10 h-10 z M180 60 h10 v10 h-10 z M180 290 h10 v10 h-10 z M310 110 h10 v10 h-10 z M40 240 h10 v10 h-10 z M40 150 h10 v10 h-10 z M260 80 h10 v10 h-10 z M100 150 h10 v10 h-10 z M310 270 h10 v10 h-10 z M70 50 h10 v10 h-10 z M20 40 h10 v10 h-10 z M310 310 h10 v10 h-10 z M240 40 h10 v10 h-10 z M50 140 h10 v10 h-10 z M90 80 h10 v10 h-10 z M270 210 h10 v10 h-10 z M80 230 h10 v10 h-10 z M220 20 h10 v10 h-10 z M190 150 h10 v10 h-10 z M110 290 h10 v10 h-10 z M50 230 h10 v10 h-10 z M20 140 h10 v10 h-10 z M210 120 h10 v10 h-10 z M260 90 h10 v10 h-10 z M130 100 h10 v10 h-10 z M30 160 h10 v10 h-10 z M120 200 h10 v10 h-10 z M90 230 h10 v10 h-10 z M120 140 h10 v10 h-10 z M160 30 h10 v10 h-10 z M130 40 h10 v10 h-10 z M40 170 h10 v10 h-10 z M140 30 h10 v10 h-10 z M260 290 h10 v10 h-10 z M210 160 h10 v10 h-10 z M150 180 h10 v10 h-10 z M180 10 h10 v10 h-10 z M60 20 h10 v10 h-10 z M280 230 h10 v10 h-10 z M180 0 h10 v10 h-10 z M100 160 h10 v10 h-10 z M300 50 h10 v10 h-10 z M170 240 h10 v10 h-10 z M160 80 h10 v10 h-10 z M30 60 h10 v10 h-10 z M260 270 h10 v10 h-10 z M230 210 h10 v10 h-10 z M220 40 h10 v10 h-10 z M310 140 h10 v10 h-10 z M100 220 h10 v10 h-10 z M260 140 h10 v10 h-10 z M170 20 h10 v10 h-10 z M120 270 h10 v10 h-10 z M130 110 h10 v10 h-10 z M210 240 h10 v10 h-10 z M60 0 h10 v10 h-10 z " fill="currentColor" stroke="currentColor" shape-rendering="crispEdges" stroke-width="0.025" id="i-6"/><path d="M270 140 h10 v10 h-10 z M250 310 h10 v10 h-10 z M60 30 h10 v10 h-10 z M240 120 h10 v10 h-10 z M250 110 h10 v10 h-10 z M30 260 h10 v10 h-10 z M130 90 h10 v10 h-10 z M180 230 h10 v10 h-10 z M110 120 h10 v10 h-10 z M280 160 h10 v10 h-10 z M200 10 h10 v10 h-10 z M300 100 h10 v10 h-10 z M310 290 h10 v10 h-10 z M180 130 h10 v10 h-10 z M290 210 h10 v10 h-10 z M300 30 h10 v10 h-10 z M30 10 h10 v10 h-10 z M190 30 h10 v10 h-10 z M10 170 h10 v10 h-10 z M0 250 h10 v10 h-10 z M100 170 h10 v10 h-10 z M190 220 h10 v10 h-10 z M10 50 h10 v10 h-10 z M90 290 h10 v10 h-10 z M80 260 h10 v10 h-10 z M150 90 h10 v10 h-10 z M40 300 h10 v10 h-10 z M250 290 h10 v10 h-10 z M40 110 h10 v10 h-10 z M270 170 h10 v10 h-10 z M20 260 h10 v10 h-10 z M60 240 h10 v10 h-10 z M160 40 h10 v10 h-10 z M270 30 h10 v10 h-10 z M300 280 h10 v10 h-10 z M100 90 h10 v10 h-10 z M200 220 h10 v10 h-10 z M50 270 h10 v10 h-10 z M210 250 h10 v10 h-10 z M150 160 h10 v10 h-10 z M50 20 h10 v10 h-10 z M180 210 h10 v10 h-10 z M250 230 h10 v10 h-10 z M190 290 h10 v10 h-10 z M200 230 h10 v10 h-10 z M260 230 h10 v10 h-10 z M310 100 h10 v10 h-10 z M50 10 h10 v10 h-10 z M20 190 h10 v10 h-10 z M120 240 h10 v10 h-10 z M40 90 h10 v10 h-10 z M130 30 h10 v10 h-10 z M80 250 h10 v10 h-10 z M120 300 h10 v10 h-10 z M160 190 h10 v10 h-10 z M100 190 h10 v10 h-10 z M190 60 h10 v10 h-10 z M130 220 h10 v10 h-10 z M180 150 h10 v10 h-10 z M90 140 h10 v10 h-10 z M100 80 h10 v10 h-10 z M130 130 h10 v10 h-10 z M220 290 h10 v10 h-10 z M40 70 h10 v10 h-10 z M270 90 h10 v10 h-10 z M30 140 h10 v10 h-10 z M0 270 h10 v10 h-10 z M40 100 h10 v10 h-10 z M290 110 h10 v10 h-10 z " fill="currentColor" stroke="currentColor" shape-rendering="crispEdges" stroke-width="0.025" id="i-7"/><path d="M270 150 h10 v10 h-10 z M230 240 h10 v10 h-10 z M140 20 h10 v10 h-10 z M220 10 h10 v10 h-10 z M110 0 h10 v10 h-10 z M260 130 h10 v10 h-10 z M230 60 h10 v10 h-10 z M270 160 h10 v10 h-10 z M240 10 h10 v10 h-10 z M150 300 h10 v10 h-10 z M150 230 h10 v10 h-10 z M80 0 h10 v10 h-10 z M210 10 h10 v10 h-10 z M260 50 h10 v10 h-10 z M210 30 h10 v10 h-10 z M0 140 h10 v10 h-10 z M230 230 h10 v10 h-10 z M240 160 h10 v10 h-10 z M160 20 h10 v10 h-10 z M90 60 h10 v10 h-10 z M70 100 h10 v10 h-10 z M110 190 h10 v10 h-10 z M300 10 h10 v10 h-10 z M160 120 h10 v10 h-10 z M300 140 h10 v10 h-10 z M290 60 h10 v10 h-10 z M10 310 h10 v10 h-10 z M40 60 h10 v10 h-10 z M90 30 h10 v10 h-10 z M260 30 h10 v10 h-10 z M70 310 h10 v10 h-10 z M160 50 h10 v10 h-10 z M60 200 h10 v10 h-10 z M40 230 h10 v10 h-10 z M220 140 h10 v10 h-10 z M300 70 h10 v10 h-10 z M260 200 h10 v10 h-10 z M170 70 h10 v10 h-10 z M190 130 h10 v10 h-10 z M120 190 h10 v10 h-10 z M20 90 h10 v10 h-10 z M90 310 h10 v10 h-10 z M110 110 h10 v10 h-10 z M50 180 h10 v10 h-10 z M80 180 h10 v10 h-10 z M100 200 h10 v10 h-10 z M130 60 h10 v10 h-10 z M280 210 h10 v10 h-10 z M280 60 h10 v10 h-10 z M270 130 h10 v10 h-10 z M240 260 h10 v10 h-10 z M20 300 h10 v10 h-10 z M110 10 h10 v10 h-10 z M250 190 h10 v10 h-10 z M40 160 h10 v10 h-10 z M10 180 h10 v10 h-10 z M80 200 h10 v10 h-10 z M310 210 h10 v10 h-10 z M250 280 h10 v10 h-10 z M90 150 h10 v10 h-10 z M230 270 h10 v10 h-10 z M270 100 h10 v10 h-10 z M130 190 h10 v10 h-10 z M80 290 h10 v10 h-10 z M180 300 h10 v10 h-10 z M310 130 h10 v10 h-10 z M0 60 h10 v10 h-10 z M140 110 h10 v10 h-10 z M10 30 h10 v10 h-10 z " fill="currentColor" stroke="currentColor" shape-rendering="crispEdges" stroke-width="0.025" id="i-8"/><path d="M310 40 h10 v10 h-10 z M290 120 h10 v10 h-10 z M200 40 h10 v10 h-10 z M120 280 h10 v10 h-10 z M90 260 h10 v10 h-10 z M140 70 h10 v10 h-10 z M60 300 h10 v10 h-10 z M170 230 h10 v10 h-10 z M310 220 h10 v10 h-10 z M300 120 h10 v10 h-10 z M180 110 h10 v10 h-10 z M140 280 h10 v10 h-10 z M280 40 h10 v10 h-10 z M130 10 h10 v10 h-10 z M20 310 h10 v10 h-10 z M210 280 h10 v10 h-10 z M60 100 h10 v10 h-10 z M90 130 h10 v10 h-10 z M180 160 h10 v10 h-10 z M30 270 h10 v10 h-10 z M200 190 h10 v10 h-10 z M130 210 h10 v10 h-10 z M130 200 h10 v10 h-10 z M30 230 h10 v10 h-10 z M280 200 h10 v10 h-10 z M50 120 h10 v10 h-10 z M70 150 h10 v10 h-10 z M180 220 h10 v10 h-10 z M140 310 h10 v10 h-10 z M150 10 h10 v10 h-10 z M10 250 h10 v10 h-10 z M280 120 h10 v10 h-10 z M30 0 h10 v10 h-10 z M130 270 h10 v10 h-10 z M0 110 h10 v10 h-10 z M280 80 h10 v10 h-10 z M60 50 h10 v10 h-10 z M240 200 h10 v10 h-10 z M280 250 h10 v10 h-10 z M190 280 h10 v10 h-10 z M200 300 h10 v10 h-10 z M150 70 h10 v10 h-10 z M50 70 h10 v10 h-10 z M230 40 h10 v10 h-10 z M30 90 h10 v10 h-10 z M240 90 h10 v10 h-10 z M220 30 h10 v10 h-10 z M270 80 h10 v10 h-10 z M40 290 h10 v10 h-10 z M150 130 h10 v10 h-10 z M0 90 h10 v10 h-10 z M250 270 h10 v10 h-10 z M200 120 h10 v10 h-10 z M290 0 h10 v10 h-10 z M240 50 h10 v10 h-10 z M140 220 h10 v10 h-10 z M140 300 h10 v10 h-10 z M270 200 h10 v10 h-10 z M40 180 h10 v10 h-10 z M10 140 h10 v10 h-10 z M220 190 h10 v10 h-10 z M220 150 h10 v10 h-10 z M30 190 h10 v10 h-10 z M140 190 h10 v10 h-10 z M200 160 h10 v10 h-10 z M160 90 h10 v10 h-10 z M100 60 h10 v10 h-10 z M60 40 h10 v10 h-10 z M50 60 h10 v10 h-10 z " fill="currentColor" stroke="currentColor" shape-rendering="crispEdges" stroke-width="0.025" id="i-9"/><path d="M160 310 h10 v10 h-10 z M170 50 h10 v10 h-10 z M80 110 h10 v10 h-10 z M140 150 h10 v10 h-10 z M120 90 h10 v10 h-10 z M250 0 h10 v10 h-10 z M60 160 h10 v10 h-10 z M10 120 h10 v10 h-10 z M200 200 h10 v10 h-10 z M200 140 h10 v10 h-10 z M160 260 h10 v10 h-10 z M100 110 h10 v10 h-10 z M70 300 h10 v10 h-10 z M260 280 h10 v10 h-10 z M200 70 h10 v10 h-10 z M200 0 h10 v10 h-10 z M270 280 h10 v10 h-10 z M200 80 h10 v10 h-10 z M300 300 h10 v10 h-10 z M180 140 h10 v10 h-10 z M180 200 h10 v10 h-10 z M160 280 h10 v10 h-10 z M210 220 h10 v10 h-10 z M240 100 h10 v10 h-10 z M220 160 h10 v10 h-10 z M300 60 h10 v10 h-10 z M40 40 h10 v10 h-10 z M250 200 h10 v10 h-10 z M190 180 h10 v10 h-10 z M300 200 h10 v10 h-10 z M130 120 h10 v10 h-10 z M170 10 h10 v10 h-10 z M80 50 h10 v10 h-10 z M230 220 h10 v10 h-10 z M80 210 h10 v10 h-10 z M150 110 h10 v10 h-10 z M90 160 h10 v10 h-10 z M30 290 h10 v10 h-10 z M50 130 h10 v10 h-10 z M140 170 h10 v10 h-10 z M280 20 h10 v10 h-10 z M190 310 h10 v10 h-10 z M100 260 h10 v10 h-10 z M80 270 h10 v10 h-10 z M50 280 h10 v10 h-10 z M80 20 h10 v10 h-10 z M70 250 h10 v10 h-10 z M110 80 h10 v10 h-10 z M230 110 h10 v10 h-10 z M170 290 h10 v10 h-10 z M250 140 h10 v10 h-10 z M260 170 h10 v10 h-10 z M290 170 h10 v10 h-10 z M180 260 h10 v10 h-10 z M290 150 h10 v10 h-10 z M140 120 h10 v10 h-10 z M10 270 h10 v10 h-10 z M180 50 h10 v10 h-10 z M110 100 h10 v10 h-10 z M280 140 h10 v10 h-10 z M120 130 h10 v10 h-10 z M50 160 h10 v10 h-10 z M0 230 h10 v10 h-10 z M130 180 h10 v10 h-10 z M150 170 h10 v10 h-10 z M20 290 h10 v10 h-10 z M120 40 h10 v10 h-10 z M290 10 h10 v10 h-10 z M310 50 h10 v10 h-10 z " fill="currentColor" stroke="currentColor" shape-rendering="crispEdges" stroke-width="0.025" id="i-10"/><path d="M70 140 h10 v10 h-10 z M280 300 h10 v10 h-10 z M10 20 h10 v10 h-10 z M190 50 h10 v10 h-10 z M100 130 h10 v10 h-10 z M90 100 h10 v10 h-10 z M200 20 h10 v10 h-10 z M40 0 h10 v10 h-10 z M80 40 h10 v10 h-10 z M30 100 h10 v10 h-10 z M110 300 h10 v10 h-10 z M30 20 h10 v10 h-10 z M260 60 h10 v10 h-10 z M270 300 h10 v10 h-10 z M270 240 h10 v10 h-10 z M30 110 h10 v10 h-10 z M270 180 h10 v10 h-10 z M270 10 h10 v10 h-10 z M10 40 h10 v10 h-10 z M260 100 h10 v10 h-10 z M100 230 h10 v10 h-10 z M100 30 h10 v10 h-10 z M90 20 h10 v10 h-10 z M100 280 h10 v10 h-10 z M10 90 h10 v10 h-10 z M210 60 h10 v10 h-10 z M110 20 h10 v10 h-10 z M170 260 h10 v10 h-10 z M10 300 h10 v10 h-10 z M300 290 h10 v10 h-10 z M240 130 h10 v10 h-10 z M110 60 h10 v10 h-10 z M120 50 h10 v10 h-10 z M230 150 h10 v10 h-10 z M210 190 h10 v10 h-10 z M0 170 h10 v10 h-10 z M230 20 h10 v10 h-10 z M60 80 h10 v10 h-10 z M20 150 h10 v10 h-10 z M240 190 h10 v10 h-10 z M140 290 h10 v10 h-10 z M110 200 h10 v10 h-10 z M100 310 h10 v10 h-10 z M0 20 h10 v10 h-10 z M20 250 h10 v10 h-10 z M40 250 h10 v10 h-10 z M90 250 h10 v10 h-10 z M30 200 h10 v10 h-10 z M0 260 h10 v10 h-10 z M160 240 h10 v10 h-10 z M260 210 h10 v10 h-10 z M180 120 h10 v10 h-10 z M110 180 h10 v10 h-10 z M80 100 h10 v10 h-10 z M240 270 h10 v10 h-10 z M170 80 h10 v10 h-10 z M170 200 h10 v10 h-10 z M60 150 h10 v10 h-10 z M50 300 h10 v10 h-10 z M300 170 h10 v10 h-10 z M150 40 h10 v10 h-10 z M290 180 h10 v10 h-10 z M60 210 h10 v10 h-10 z M210 130 h10 v10 h-10 z M160 170 h10 v10 h-10 z M80 120 h10 v10 h-10 z M300 240 h10 v10 h-10 z M100 120 h10 v10 h-10 z M310 70 h10 v10 h-10 z " fill="currentColor" stroke="currentColor" shape-rendering="crispEdges" stroke-width="0.025" id="i-11"/><path d="M230 180 h10 v10 h-10 z M170 90 h10 v10 h-10 z M310 200 h10 v10 h-10 z M150 200 h10 v10 h-10 z M250 10 h10 v10 h-10 z M70 160 h10 v10 h-10 z M130 150 h10 v10 h-10 z M150 240 h10 v10 h-10 z M70 90 h10 v10 h-10 z M240 290 h10 v10 h-10 z M90 210 h10 v10 h-10 z M80 160 h10 v10 h-10 z M130 230 h10 v10 h-10 z M220 200 h10 v10 h-10 z M100 40 h10 v10 h-10 z M20 80 h10 v10 h-10 z M100 240 h10 v10 h-10 z M140 50 h10 v10 h-10 z M300 270 h10 v10 h-10 z M300 190 h10 v10 h-10 z M60 310 h10 v10 h-10 z M210 0 h10 v10 h-10 z M260 10 h10 v10 h-10 z M120 30 h10 v10 h-10 z M310 80 h10 v10 h-10 z M10 290 h10 v10 h-10 z M0 300 h10 v10 h-10 z M220 170 h10 v10 h-10 z M250 210 h10 v10 h-10 z M310 240 h10 v10 h-10 z M250 70 h10 v10 h-10 z M90 280 h10 v10 h-10 z M220 240 h10 v10 h-10 z M170 0 h10 v10 h-10 z M80 240 h10 v10 h-10 z M60 230 h10 v10 h-10 z M80 80 h10 v10 h-10 z M300 40 h10 v10 h-10 z M0 0 h10 v10 h-10 z M160 230 h10 v10 h-10 z M310 280 h10 v10 h-10 z M10 280 h10 v10 h-10 z M190 110 h10 v10 h-10 z M10 230 h10 v10 h-10 z M60 280 h10 v10 h-10 z M110 260 h10 v10 h-10 z M140 230 h10 v10 h-10 z M300 80 h10 v10 h-10 z M60 110 h10 v10 h-10 z M270 190 h10 v10 h-10 z M10 80 h10 v10 h-10 z M190 250 h10 v10 h-10 z M160 290 h10 v10 h-10 z M80 10 h10 v10 h-10 z M260 70 h10 v10 h-10 z M120 80 h10 v10 h-10 z M130 290 h10 v10 h-10 z M190 0 h10 v10 h-10 z M120 120 h10 v10 h-10 z M290 20 h10 v10 h-10 z M300 110 h10 v10 h-10 z M270 20 h10 v10 h-10 z M290 100 h10 v10 h-10 z M230 70 h10 v10 h-10 z M310 20 h10 v10 h-10 z M0 200 h10 v10 h-10 z M60 90 h10 v10 h-10 z M60 220 h10 v10 h-10 z M230 310 h10 v10 h-10 z " fill="currentColor" stroke="currentColor" shape-rendering="crispEdges" stroke-width="0.025" id="i-12"/><path d="M150 280 h10 v10 h-10 z M250 90 h10 v10 h-10 z M40 310 h10 v10 h-10 z M210 20 h10 v10 h-10 z M240 240 h10 v10 h-10 z M220 120 h10 v10 h-10 z M70 200 h10 v10 h-10 z M10 220 h10 v10 h-10 z M270 260 h10 v10 h-10 z M240 0 h10 v10 h-10 z M180 70 h10 v10 h-10 z M230 190 h10 v10 h-10 z M170 300 h10 v10 h-10 z M30 150 h10 v10 h-10 z M220 210 h10 v10 h-10 z M70 120 h10 v10 h-10 z M90 170 h10 v10 h-10 z M60 260 h10 v10 h-10 z M10 210 h10 v10 h-10 z M50 290 h10 v10 h-10 z M170 310 h10 v10 h-10 z M0 120 h10 v10 h-10 z M140 10 h10 v10 h-10 z M210 200 h10 v10 h-10 z M90 70 h10 v10 h-10 z M180 180 h10 v10 h-10 z M10 150 h10 v10 h-10 z M110 270 h10 v10 h-10 z M0 290 h10 v10 h-10 z M20 230 h10 v10 h-10 z M120 110 h10 v10 h-10 z M160 10 h10 v10 h-10 z M200 210 h10 v10 h-10 z M280 290 h10 v10 h-10 z M160 270 h10 v10 h-10 z M40 140 h10 v10 h-10 z M220 90 h10 v10 h-10 z M220 110 h10 v10 h-10 z M310 190 h10 v10 h-10 z M70 30 h10 v10 h-10 z M30 130 h10 v10 h-10 z M40 210 h10 v10 h-10 z M80 300 h10 v10 h-10 z M190 70 h10 v10 h-10 z M290 220 h10 v10 h-10 z M30 300 h10 v10 h-10 z M230 290 h10 v10 h-10 z M220 300 h10 v10 h-10 z M130 300 h10 v10 h-10 z M170 30 h10 v10 h-10 z M290 140 h10 v10 h-10 z M300 160 h10 v10 h-10 z M30 240 h10 v10 h-10 z M120 100 h10 v10 h-10 z M190 40 h10 v10 h-10 z M190 210 h10 v10 h-10 z M230 0 h10 v10 h-10 z M270 290 h10 v10 h-10 z M0 240 h10 v10 h-10 z M260 120 h10 v10 h-10 z M210 230 h10 v10 h-10 z M140 40 h10 v10 h-10 z M270 0 h10 v10 h-10 z M180 240 h10 v10 h-10 z M200 170 h10 v10 h-10 z M310 120 h10 v10 h-10 z M130 280 h10 v10 h-10 z M70 80 h10 v10 h-10 z M0 220 h10 v10 h-10 z " fill="currentColor" stroke="currentColor" shape-rendering="crispEdges" stroke-width="0.025" id="i-13"/><path d="M160 140 h10 v10 h-10 z M180 280 h10 v10 h-10 z M60 180 h10 v10 h-10 z M110 250 h10 v10 h-10 z M280 150 h10 v10 h-10 z M30 30 h10 v10 h-10 z M120 290 h10 v10 h-10 z M40 30 h10 v10 h-10 z M270 50 h10 v10 h-10 z M300 230 h10 v10 h-10 z M150 20 h10 v10 h-10 z M10 130 h10 v10 h-10 z M250 20 h10 v10 h-10 z M230 140 h10 v10 h-10 z M120 150 h10 v10 h-10 z M200 270 h10 v10 h-10 z M240 80 h10 v10 h-10 z M20 280 h10 v10 h-10 z M250 150 h10 v10 h-10 z M190 190 h10 v10 h-10 z M150 190 h10 v10 h-10 z M80 280 h10 v10 h-10 z M270 310 h10 v10 h-10 z M190 100 h10 v10 h-10 z M230 200 h10 v10 h-10 z M150 140 h10 v10 h-10 z M100 140 h10 v10 h-10 z M20 60 h10 v10 h-10 z M190 80 h10 v10 h-10 z M70 0 h10 v10 h-10 z M100 100 h10 v10 h-10 z M180 80 h10 v10 h-10 z M130 80 h10 v10 h-10 z M70 10 h10 v10 h-10 z M250 300 h10 v10 h-10 z M150 260 h10 v10 h-10 z M140 0 h10 v10 h-10 z M240 70 h10 v10 h-10 z M180 20 h10 v10 h-10 z M240 180 h10 v10 h-10 z M180 40 h10 v10 h-10 z M140 270 h10 v10 h-10 z M50 80 h10 v10 h-10 z M20 10 h10 v10 h-10 z M170 170 h10 v10 h-10 z M290 280 h10 v10 h-10 z M100 300 h10 v10 h-10 z M200 30 h10 v10 h-10 z M170 150 h10 v10 h-10 z M250 30 h10 v10 h-10 z M310 10 h10 v10 h-10 z M250 130 h10 v10 h-10 z M10 110 h10 v10 h-10 z M70 170 h10 v10 h-10 z M150 250 h10 v10 h-10 z M30 170 h10 v10 h-10 z M80 130 h10 v10 h-10 z M0 180 h10 v10 h-10 z " fill="currentColor" stroke="currentColor" shape-rendering="crispEdges" stroke-width="0.025" id="i-14"/></defs></svg>